<svg xmlns="http://www.w3.org/2000/svg" width="840.069" height="405.714" viewBox="0 0 840.069 405.714">
  <g id="bg" transform="translate(-64.751 0.428)">
    <line id="Line_29" data-name="Line 29" x2="572.477" transform="matrix(-0.856, 0.517, -0.517, -0.856, 686.937, 19.204)" fill="none" stroke="#dedff4" stroke-width="1"/>
    <line id="Line_33" data-name="Line 33" x2="367.637" transform="matrix(-0.856, 0.517, -0.517, -0.856, 392.479, 0)" fill="none" stroke="#dedff4" stroke-width="1"/>
    <line id="Line_34" data-name="Line 34" x2="367.637" transform="matrix(-0.856, 0.517, -0.517, -0.856, 379.676, 89.618)" fill="none" stroke="#dedff4" stroke-width="1"/>
    <line id="Line_28" data-name="Line 28" x2="450.732" transform="matrix(-0.876, -0.482, 0.482, -0.876, 631.245, 253.49)" fill="none" stroke="#dedff4" stroke-width="1" stroke-dasharray="7 7"/>
    <line id="Line_32" data-name="Line 32" x2="450.732" transform="matrix(-0.876, -0.482, 0.482, -0.876, 904.579, 229.805)" fill="none" stroke="#dedff4" stroke-width="1" stroke-dasharray="7 7"/>
    <line id="Line_35" data-name="Line 35" x2="297.102" transform="matrix(-0.876, -0.482, 0.482, -0.876, 814.962, 242.608)" fill="none" stroke="#dedff4" stroke-width="1" stroke-dasharray="0 0"/>
    <line id="Line_31" data-name="Line 31" x2="572.477" transform="matrix(-0.856, 0.517, -0.517, -0.856, 661.331, 108.821)" fill="none" stroke="#dedff4" stroke-width="1" stroke-dasharray="7 7"/>
    <g id="Group_223" data-name="Group 223">
      <g id="Rectangle_69" data-name="Rectangle 69" fill="rgba(69,72,176,0.1)" stroke-dasharray="7 7">
        <path d="M662.13,158,717.723,125.9l92.249,53.255-55.593,32.094Z" stroke="none"/>
        <path d="M 729.8478393554688 132.9027709960938 L 731.4913940429688 133.8515930175781 C 731.4920654296875 133.8519897460938 731.4927978515625 133.8524169921875 731.4934692382813 133.8527984619141 L 731.5152587890625 133.8653564453125 C 731.515869140625 133.8657379150391 731.5166015625 133.8661346435547 731.5172729492188 133.8665313720703 L 731.5242919921875 133.8705749511719 C 731.5244750976563 133.8706817626953 731.5248413085938 133.8709106445313 731.5250244140625 133.8710021972656 L 731.5485229492188 133.8845825195313 C 733.341796875 134.9198455810547 735.91015625 136.4025421142578 735.91015625 136.4025421142578 L 735.41015625 137.2685852050781 L 729.3478393554688 133.768798828125 L 729.8478393554688 132.9027557373047 Z M 741.9724731445313 139.9023132324219 L 745.2632446289063 141.8020935058594 C 745.2643432617188 141.802734375 745.2652587890625 141.8032684326172 745.2664184570313 141.8038940429688 L 745.2727661132813 141.8075714111328 C 745.2738647460938 141.8082122802734 745.2744750976563 141.8085784912109 745.2755737304688 141.8092041015625 L 745.2982177734375 141.8222961425781 C 745.3001098632813 141.8233489990234 745.3024291992188 141.8246917724609 745.3042602539063 141.8257598876953 L 745.3054809570313 141.8264770507813 C 745.31103515625 141.8296661376953 745.3167114257813 141.8329467773438 745.3222045898438 141.8361358642578 L 745.3231201171875 141.8366546630859 C 746.7249755859375 142.6459350585938 748.0347290039063 143.4020843505859 748.0347290039063 143.4020843505859 L 747.5347900390625 144.2681274414063 L 741.4724731445313 140.7683563232422 L 741.9724731445313 139.9022979736328 Z M 754.0970458984375 146.90185546875 C 754.0970458984375 146.90185546875 760.1593627929688 150.4016265869141 760.1593627929688 150.4016265869141 L 759.659423828125 151.2676544189453 L 753.5971069335938 147.7678985595703 L 754.0970458984375 146.90185546875 Z M 766.2216796875 153.9013977050781 C 766.2216796875 153.9013977050781 768.8316650390625 155.4081268310547 770.6265258789063 156.4443206787109 L 770.6292114257813 156.4458465576172 C 770.6707153320313 156.4698333740234 770.7116088867188 156.4934234619141 770.7522583007813 156.5168914794922 L 770.7568359375 156.5195465087891 C 770.7661743164063 156.5249176025391 770.7750854492188 156.5300598144531 770.7843017578125 156.535400390625 L 770.7869873046875 156.5369262695313 C 770.7888793945313 156.5380554199219 770.790771484375 156.5391387939453 770.792724609375 156.5402679443359 L 770.7935180664063 156.5407257080078 C 770.795654296875 156.5419464111328 770.7979125976563 156.5432586669922 770.800048828125 156.5444793701172 L 770.8024291992188 156.5458679199219 C 770.8038940429688 156.5467071533203 770.8055419921875 156.5476684570313 770.8070068359375 156.5485076904297 L 770.8355102539063 156.5649719238281 C 770.8359985351563 156.5652465820313 770.8364868164063 156.5655364990234 770.8369750976563 156.5658111572266 L 770.8418579101563 156.568603515625 C 770.84228515625 156.5688781738281 770.8432006835938 156.5693817138672 770.8436279296875 156.5696563720703 L 770.8966064453125 156.6002197265625 C 770.8969116210938 156.6003875732422 770.8972778320313 156.6006317138672 770.8976440429688 156.6008148193359 L 772.2839965820313 157.4011688232422 L 771.7840576171875 158.2671966552734 L 765.7216796875 154.7674407958984 L 766.2216796875 153.9013977050781 Z M 778.3463134765625 160.9009399414063 C 778.3463134765625 160.9009399414063 778.557861328125 161.0230560302734 778.9019775390625 161.2217407226563 L 778.9078979492188 161.2251434326172 C 778.9141235351563 161.2287292480469 778.9202270507813 161.2322692871094 778.926513671875 161.2359008789063 L 778.9290161132813 161.2373504638672 C 778.9354858398438 161.2410583496094 778.9418334960938 161.2447204589844 778.9483032226563 161.2484741210938 L 778.951416015625 161.2502746582031 C 778.9577026367188 161.25390625 778.9639282226563 161.2574920654297 778.9703369140625 161.2611694335938 L 778.9739379882813 161.2632904052734 C 778.9771728515625 161.2651214599609 778.9802856445313 161.2669525146484 778.9835205078125 161.268798828125 L 778.984130859375 161.2691497802734 C 778.9862670898438 161.2703857421875 778.9883422851563 161.2715911865234 778.990478515625 161.2728271484375 L 778.9970703125 161.2766265869141 C 778.9998168945313 161.2782135009766 779.0028076171875 161.2799377441406 779.0055541992188 161.2815246582031 L 779.00732421875 161.2825469970703 C 779.0104370117188 161.2843475341797 779.0137329101563 161.2862396240234 779.016845703125 161.2880554199219 L 779.0192260742188 161.2894134521484 C 779.0206909179688 161.2902679443359 779.0222778320313 161.2911834716797 779.0237426757813 161.2920379638672 L 779.0243530273438 161.2923583984375 C 779.0259399414063 161.2932739257813 779.0275268554688 161.2942199707031 779.0291137695313 161.2951354980469 L 779.03076171875 161.2960815429688 C 779.0323486328125 161.2969970703125 779.033935546875 161.2978973388672 779.0355224609375 161.2988128662109 L 779.0364379882813 161.2993469238281 C 779.0375366210938 161.2999877929688 779.0386962890625 161.3006591796875 779.039794921875 161.3013000488281 L 779.0439453125 161.3036956787109 C 779.0447998046875 161.3041839599609 779.0457153320313 161.3046875 779.0465698242188 161.3051910400391 L 779.0482177734375 161.30615234375 C 779.0498046875 161.3070678710938 779.0513916015625 161.3079986572266 779.0530395507813 161.3089294433594 L 779.0543212890625 161.3096771240234 C 779.0560302734375 161.3106689453125 779.057861328125 161.3117065429688 779.0595703125 161.3127136230469 L 784.4086303710938 164.4007110595703 L 783.9086303710938 165.2667541503906 L 777.8463134765625 161.7669830322266 L 778.3463134765625 160.9009399414063 Z M 790.470947265625 167.9004821777344 L 792.087158203125 168.8335418701172 C 792.0923461914063 168.8365173339844 792.0972900390625 168.8393859863281 792.1024169921875 168.8423614501953 L 792.103759765625 168.8431396484375 C 793.8993530273438 169.8797149658203 796.533203125 171.4002532958984 796.533203125 171.4002532958984 L 796.0332641601563 172.2662963867188 L 789.970947265625 168.7665252685547 L 790.470947265625 167.9004821777344 Z M 802.5955200195313 174.9000244140625 L 805.8966064453125 176.8057098388672 C 805.89697265625 176.8059234619141 805.8975830078125 176.8062896728516 805.89794921875 176.8065032958984 L 805.9095458984375 176.8132019042969 C 805.911376953125 176.8142700195313 805.912841796875 176.8150939941406 805.9146728515625 176.816162109375 L 805.921142578125 176.8199005126953 C 805.9266967773438 176.8230895996094 805.9322509765625 176.8263244628906 805.9378051757813 176.8295135498047 L 805.94482421875 176.8335571289063 C 805.94775390625 176.8352508544922 805.9506225585938 176.8369140625 805.9535522460938 176.8386077880859 L 805.9549560546875 176.8394317626953 C 807.3534545898438 177.6467895507813 808.6578369140625 178.3997955322266 808.6578369140625 178.3997955322266 L 808.1578979492188 179.2658386230469 L 802.0955810546875 175.7660675048828 L 802.5955200195313 174.9000244140625 Z M 804.7244262695313 181.0335235595703 L 805.2244262695313 181.8995666503906 C 805.2244262695313 181.8995666503906 799.350830078125 185.2904052734375 799.1665649414063 185.3967742919922 L 799.1664428710938 185.3968200683594 C 799.1650390625 185.3976440429688 799.1640014648438 185.3982543945313 799.1632690429688 185.398681640625 L 799.1630859375 185.3987731933594 C 799.1627807617188 185.3989410400391 799.16259765625 185.3990631103516 799.1624145507813 185.3991546630859 L 799.1622924804688 185.3992309570313 C 799.1622314453125 185.3992462158203 799.1622314453125 185.3992767333984 799.1621704101563 185.3992919921875 L 799.162109375 185.3993377685547 L 798.6621704101563 184.5332946777344 L 804.7244262695313 181.0335235595703 Z M 792.599853515625 188.0330657958984 L 793.0997924804688 188.8991241455078 L 792.4774169921875 189.2584228515625 C 792.47705078125 189.2586212158203 792.4767456054688 189.2587890625 792.4764404296875 189.2589874267578 L 792.4711303710938 189.2620391845703 C 792.4710083007813 189.2621002197266 792.4708251953125 189.2622375488281 792.470703125 189.2622985839844 L 792.4669799804688 189.2644195556641 C 792.466064453125 189.2649688720703 792.465087890625 189.2655487060547 792.464111328125 189.2660980224609 L 792.455322265625 189.2711791992188 C 792.454833984375 189.2714538574219 792.4541625976563 189.2718200683594 792.4537353515625 189.2720947265625 L 792.4387817382813 189.2807159423828 C 792.4356689453125 189.2825164794922 792.4324951171875 189.2843475341797 792.4293212890625 189.2861785888672 L 792.425537109375 189.2883453369141 C 792.4229125976563 189.2899017333984 792.4203491210938 189.2913665771484 792.4176635742188 189.2929229736328 L 792.4146728515625 189.2946319580078 C 792.411865234375 189.2962493896484 792.4091186523438 189.2978668212891 792.40625 189.2994995117188 L 792.4027099609375 189.3015289306641 C 792.3954467773438 189.3057250976563 792.3883666992188 189.3098297119141 792.3809814453125 189.3140869140625 L 792.3796997070313 189.3148345947266 C 792.377685546875 189.3159942626953 792.3757934570313 189.3170776367188 792.373779296875 189.3182220458984 L 792.3668823242188 189.3222351074219 C 792.365966796875 189.3227386474609 792.3651733398438 189.3232116699219 792.3643188476563 189.3237152099609 L 792.3607788085938 189.3257446289063 C 792.3602905273438 189.3260345458984 792.3595581054688 189.3264465332031 792.3590698242188 189.3267364501953 L 792.349853515625 189.3320617675781 C 792.3484497070313 189.3328704833984 792.3470458984375 189.3336791992188 792.3456420898438 189.3344879150391 L 792.3423461914063 189.3363800048828 C 792.3395385742188 189.3379974365234 792.3365478515625 189.3397369384766 792.333740234375 189.3413543701172 L 792.3311767578125 189.3428344726563 C 792.3232421875 189.3474273681641 792.3154296875 189.3519287109375 792.307373046875 189.3565673828125 L 792.30712890625 189.3567352294922 C 792.2908935546875 189.3660888671875 792.274658203125 189.37548828125 792.258056640625 189.3850555419922 L 792.2554931640625 189.3865203857422 C 792.222412109375 189.4056243896484 792.1886596679688 189.4251251220703 792.1541137695313 189.4450531005859 L 792.1513671875 189.4466400146484 C 790.4459228515625 190.4311828613281 787.0374755859375 192.3988800048828 787.0374755859375 192.3988800048828 L 786.5375366210938 191.5328369140625 L 792.599853515625 188.0330657958984 Z M 780.4752197265625 195.0326232910156 L 780.9751586914063 195.8986663818359 L 774.912841796875 199.3984375 L 774.4129028320313 198.5323791503906 L 780.4752197265625 195.0326232910156 Z M 768.3505859375 202.0321655273438 L 768.8505859375 202.898193359375 L 768.8505859375 202.8982086181641 C 768.8504638671875 202.8982543945313 768.756103515625 202.9527282714844 768.5911865234375 203.0479431152344 L 768.5896606445313 203.0488128662109 C 768.4655151367188 203.1205139160156 768.3015747070313 203.2151184082031 768.1077880859375 203.3270263671875 L 768.1065673828125 203.3277282714844 C 768.0748901367188 203.3459930419922 768.0424194335938 203.3647308349609 768.00927734375 203.3838806152344 L 768.0062255859375 203.3856353759766 C 767.98974609375 203.3951416015625 767.9733276367188 203.4046478271484 767.9564819335938 203.4143676757813 L 767.9550170898438 203.4152221679688 C 767.9469604492188 203.4198455810547 767.9386596679688 203.4246520996094 767.9305419921875 203.4293212890625 L 767.9290161132813 203.4302215576172 C 767.9251708984375 203.4324493408203 767.9214477539063 203.4346008300781 767.9175415039063 203.4368286132813 L 767.915283203125 203.4381561279297 C 767.9134521484375 203.4391937255859 767.91162109375 203.4402465820313 767.9098510742188 203.4412841796875 L 767.900146484375 203.4468688964844 C 767.884033203125 203.4561767578125 767.8675537109375 203.4656829833984 767.8511962890625 203.4751586914063 L 767.8480224609375 203.4769744873047 C 767.8311767578125 203.4867095947266 767.8138427734375 203.4966888427734 767.7966918945313 203.5066070556641 L 767.7935180664063 203.5084533691406 C 767.7754516601563 203.5188751220703 767.7572021484375 203.5294189453125 767.7388305664063 203.5400238037109 L 767.7384643554688 203.5402374267578 C 767.7203369140625 203.5506744384766 767.7023315429688 203.5610809326172 767.6839599609375 203.5717010498047 L 767.6796264648438 203.5741882324219 C 767.6614990234375 203.5846405029297 767.6429443359375 203.5953521728516 767.6245727539063 203.6059722900391 L 767.6228637695313 203.6069488525391 C 767.60400390625 203.6178436279297 767.5850219726563 203.6287841796875 767.56591796875 203.6398468017578 L 767.5641479492188 203.6408538818359 C 767.5449829101563 203.6519165039063 767.5254516601563 203.6631774902344 767.5060424804688 203.6743927001953 L 767.504150390625 203.6754913330078 C 767.4868774414063 203.6854400634766 767.4693603515625 203.6955718994141 767.451904296875 203.7056427001953 L 767.4420776367188 203.7113342285156 C 767.4226684570313 203.7225341796875 767.4033203125 203.7337036132813 767.3836669921875 203.7450561523438 L 767.3823852539063 203.7457885742188 C 767.3722534179688 203.7516479492188 767.3624267578125 203.7573089599609 767.3521728515625 203.7632141113281 L 767.351806640625 203.7634429931641 C 767.3422241210938 203.7689666748047 767.3327026367188 203.7744750976563 767.3230590820313 203.780029296875 L 767.319091796875 203.7823181152344 C 767.2988891601563 203.7939910888672 767.278564453125 203.8057098388672 767.2581176757813 203.8175354003906 L 767.2573852539063 203.8179626464844 C 767.2469482421875 203.8239593505859 767.2365112304688 203.8299865722656 767.22607421875 203.8360137939453 L 767.2258911132813 203.8361358642578 C 767.2208862304688 203.8390045166016 767.2160034179688 203.8418426513672 767.2109985351563 203.8447265625 L 767.207763671875 203.8466033935547 C 767.2067260742188 203.8471832275391 767.2055053710938 203.847900390625 767.2045288085938 203.8484649658203 L 767.15380859375 203.8777465820313 C 767.1519165039063 203.8788146972656 767.1503295898438 203.8797607421875 767.1484375 203.8808288574219 L 767.143798828125 203.8835296630859 C 767.1409301757813 203.8851928710938 767.1380004882813 203.8868713378906 767.1351318359375 203.8885192871094 L 767.1260375976563 203.8937530517578 C 767.1176147460938 203.8986358642578 767.1091918945313 203.9035034179688 767.1007080078125 203.9083862304688 L 767.09326171875 203.9126892089844 C 767.0895385742188 203.9148406982422 767.0858154296875 203.9169769287109 767.0820922851563 203.9191284179688 L 767.0792846679688 203.9207763671875 C 767.077392578125 203.9218597412109 767.0753173828125 203.9230499267578 767.073486328125 203.9241333007813 L 767.0615234375 203.9310302734375 C 767.0601196289063 203.9318084716797 767.05859375 203.9327239990234 767.0571899414063 203.9335021972656 L 767.0554809570313 203.9344940185547 C 767.0536499023438 203.9355773925781 767.0516967773438 203.9366760253906 767.0498657226563 203.9377593994141 L 767.0465087890625 203.9396820068359 C 767.042236328125 203.942138671875 767.0379028320313 203.9446411132813 767.0336303710938 203.9471130371094 L 767.0304565429688 203.9489440917969 C 767.0255126953125 203.9518127441406 767.0208740234375 203.9544677734375 767.0159301757813 203.9573364257813 L 767.013916015625 203.95849609375 C 767.01171875 203.9597930908203 767.00927734375 203.961181640625 767.0070190429688 203.9624786376953 L 767.0068359375 203.9626007080078 C 767.0052490234375 203.9634857177734 767.0038452148438 203.9643096923828 767.0023193359375 203.9652099609375 L 766.9954223632813 203.9691619873047 C 766.9940795898438 203.969970703125 766.9929809570313 203.9705810546875 766.9916381835938 203.9713745117188 L 766.9896850585938 203.9724884033203 C 766.9846801757813 203.9753723144531 766.9794311523438 203.9784088134766 766.9744262695313 203.9813079833984 L 766.9718627929688 203.9827728271484 C 766.9710083007813 203.9832611083984 766.9701538085938 203.9837493896484 766.9692993164063 203.9842529296875 L 766.9629516601563 203.9879455566406 C 766.961181640625 203.9889373779297 766.9594116210938 203.9899597167969 766.9577026367188 203.9909515380859 L 766.9569091796875 203.9913940429688 C 766.9552001953125 203.9923858642578 766.9534301757813 203.9934234619141 766.9517211914063 203.9944152832031 L 766.9459228515625 203.9977722167969 C 766.9450073242188 203.9982604980469 766.9443969726563 203.9986267089844 766.9435424804688 203.9991302490234 L 766.89599609375 204.0265655517578 C 766.894775390625 204.0272674560547 766.8936767578125 204.0279083251953 766.8924560546875 204.0286102294922 L 766.8889770507813 204.0306396484375 C 766.8873901367188 204.0315551757813 766.8861083984375 204.0322875976563 766.884521484375 204.033203125 L 766.85986328125 204.0474243164063 C 766.8565673828125 204.0493469238281 766.853271484375 204.0512542724609 766.8499145507813 204.0531768798828 L 766.8482055664063 204.0541534423828 C 766.8429565429688 204.0571899414063 766.837890625 204.0601196289063 766.8326416015625 204.0631561279297 L 766.8309936523438 204.0641174316406 C 766.8260498046875 204.0669555664063 766.8208618164063 204.0699310302734 766.8159790039063 204.0727844238281 L 766.8143920898438 204.0736846923828 C 766.8115844726563 204.0753021240234 766.8087768554688 204.0769348144531 766.8059692382813 204.0785522460938 L 766.7947998046875 204.0849914550781 C 766.7846069335938 204.0908966064453 766.7747192382813 204.0965881347656 766.7644653320313 204.1025085449219 L 766.7640991210938 204.1027221679688 C 766.7534790039063 204.1088562011719 766.7431030273438 204.1148529052734 766.732421875 204.1210021972656 L 766.7276611328125 204.1237640380859 C 766.7173461914063 204.1296997070313 766.7071533203125 204.1356048583984 766.6968383789063 204.1415557861328 L 766.6952514648438 204.1424865722656 C 766.6875610351563 204.1468963623047 766.6799926757813 204.1512603759766 766.67236328125 204.1557006835938 L 766.6670532226563 204.1587524414063 C 766.6666870117188 204.1589508056641 766.6663208007813 204.1591644287109 766.6659545898438 204.1593780517578 L 766.6521606445313 204.1673583984375 C 766.6503295898438 204.1683807373047 766.6488037109375 204.1692657470703 766.6470336914063 204.1702880859375 L 766.6424560546875 204.1729583740234 C 766.6381225585938 204.1754302978516 766.6342163085938 204.1776885986328 766.6299438476563 204.18017578125 L 766.62646484375 204.1821746826172 C 766.6159057617188 204.1882781982422 766.6055908203125 204.1942291259766 766.594970703125 204.2003479003906 L 766.5917358398438 204.2022247314453 C 766.5809326171875 204.2084503173828 766.570068359375 204.2147369384766 766.5592651367188 204.2209625244141 L 766.556884765625 204.2223663330078 C 766.552001953125 204.2251739501953 766.54736328125 204.2278594970703 766.54248046875 204.2306671142578 L 766.5405883789063 204.2317352294922 C 766.5364990234375 204.234130859375 766.5323486328125 204.2365112304688 766.5281982421875 204.2389068603516 L 766.51708984375 204.2453155517578 C 766.5138549804688 204.2471923828125 766.510498046875 204.2491149902344 766.5072631835938 204.2509918212891 L 766.5059814453125 204.2517395019531 C 766.5012817382813 204.2544555664063 766.4969482421875 204.2569274902344 766.4922485351563 204.2596435546875 L 766.4854736328125 204.2635650634766 C 766.4815063476563 204.265869140625 766.4777221679688 204.2680358886719 766.4737548828125 204.2703399658203 L 766.4688720703125 204.2731628417969 C 766.4681396484375 204.2735900878906 766.467041015625 204.2742309570313 766.46630859375 204.2746429443359 L 766.4602661132813 204.2781219482422 C 766.4595336914063 204.2785339355469 766.4588012695313 204.2789611816406 766.4580688476563 204.2793731689453 L 766.45166015625 204.2830810546875 C 766.44677734375 204.2859191894531 766.4423217773438 204.2884826660156 766.4374389648438 204.2913208007813 L 766.4365234375 204.2918243408203 C 766.4320068359375 204.2944488525391 766.4273071289063 204.2971496582031 766.4227905273438 204.2997589111328 L 766.2139282226563 204.4203338623047 C 766.2137451171875 204.4204406738281 766.213623046875 204.4205169677734 766.2134399414063 204.4206237792969 L 766.2052612304688 204.4253387451172 C 766.2041625976563 204.4259796142578 766.2032470703125 204.4264984130859 766.2021484375 204.4271392822266 L 766.198974609375 204.428955078125 C 766.1978759765625 204.4295959472656 766.1962890625 204.4305114746094 766.1951904296875 204.4311370849609 L 762.7882690429688 206.3979797363281 L 762.2882690429688 205.5319366455078 L 768.3505859375 202.0321655273438 Z M 751.1636352539063 208.2414855957031 L 754.3792114257813 210.0978546142578 L 756.2259521484375 209.0317077636719 L 756.7259521484375 209.8977355957031 C 756.7259521484375 209.8977355957031 754.3792114257813 211.2525177001953 754.3792114257813 211.2525177001953 L 754.3792114257813 211.2525177001953 C 754.3792114257813 211.2525177001953 754.3756103515625 211.2504272460938 754.3685913085938 211.2463989257813 L 754.3683471679688 211.2462463378906 C 754.3682861328125 211.2462158203125 754.3682250976563 211.2461700439453 754.3681640625 211.2461242675781 L 754.3677978515625 211.2459411621094 C 754.3651123046875 211.244384765625 754.3619995117188 211.2425842285156 754.3584594726563 211.2405395507813 L 754.358154296875 211.2403869628906 C 754.357177734375 211.2398223876953 754.356201171875 211.2392272949219 754.3551635742188 211.2386322021484 L 754.3549194335938 211.2384948730469 C 754.3513793945313 211.2364807128906 754.3475341796875 211.2342224121094 754.3433227539063 211.2318115234375 L 754.3426513671875 211.2314147949219 C 754.341552734375 211.2307739257813 754.34033203125 211.2301025390625 754.3391723632813 211.2294158935547 L 754.3370971679688 211.2282104492188 C 754.3368530273438 211.2280578613281 754.3365478515625 211.2278900146484 754.3363037109375 211.2277374267578 L 754.336181640625 211.2276611328125 C 754.3345336914063 211.2267150878906 754.3328857421875 211.2257690429688 754.3311157226563 211.2247619628906 L 754.3306884765625 211.2245025634766 C 754.3244018554688 211.2208862304688 754.3175659179688 211.2169494628906 754.3101806640625 211.2126617431641 L 754.308837890625 211.2118988037109 C 754.3085327148438 211.2117309570313 754.3081665039063 211.2115020751953 754.307861328125 211.2113342285156 L 754.3064575195313 211.2105102539063 C 754.3055419921875 211.2099914550781 754.3046264648438 211.20947265625 754.3037109375 211.2089538574219 L 754.2857666015625 211.1985778808594 C 754.2855834960938 211.1984558105469 754.2852172851563 211.1982727050781 754.2849731445313 211.1981201171875 L 754.2832641601563 211.1971435546875 C 754.2826538085938 211.19677734375 754.2820434570313 211.1964416503906 754.2814331054688 211.1960754394531 L 754.2793579101563 211.1948852539063 C 754.278564453125 211.1944122314453 754.2777709960938 211.1939697265625 754.2769775390625 211.1935119628906 L 754.275390625 211.1925659179688 C 754.275146484375 211.1924438476563 754.2748413085938 211.1922607421875 754.2745971679688 211.1921081542969 L 754.269287109375 211.1890563964844 C 754.2691040039063 211.1889343261719 754.2688598632813 211.1888122558594 754.2686157226563 211.1886901855469 L 754.2673950195313 211.1879730224609 C 754.2672119140625 211.1878509521484 754.2669067382813 211.1876831054688 754.2667236328125 211.1875610351563 L 754.2593383789063 211.1833038330078 C 754.2588500976563 211.1830444335938 754.2584228515625 211.1827850341797 754.2579956054688 211.1825256347656 L 754.2572021484375 211.1820831298828 C 754.2569580078125 211.1819458007813 754.2567138671875 211.1817932128906 754.2564697265625 211.1816711425781 L 754.2548217773438 211.1806945800781 C 754.2545166015625 211.1805419921875 754.2542724609375 211.1803894042969 754.2539672851563 211.1802368164063 L 754.2532348632813 211.1797943115234 C 754.2521362304688 211.1791534423828 754.2509155273438 211.178466796875 754.2498168945313 211.1778106689453 L 754.2463989257813 211.1758575439453 C 754.2460327148438 211.1756439208984 754.2456665039063 211.1754455566406 754.2453002929688 211.1752319335938 L 754.2442016601563 211.1745910644531 C 754.2438354492188 211.1743774414063 754.2435302734375 211.1741790771484 754.2431640625 211.1739807128906 L 754.2407836914063 211.172607421875 C 754.2401123046875 211.1722259521484 754.2394409179688 211.1718444824219 754.2388305664063 211.1714782714844 L 754.2304077148438 211.1666259765625 C 754.2302856445313 211.1665344238281 754.2301025390625 211.1664276123047 754.2299194335938 211.1663513183594 L 750.6636352539063 209.1075134277344 L 751.1636352539063 208.2414855957031 Z M 739.0390014648438 201.241943359375 L 745.101318359375 204.74169921875 L 744.601318359375 205.6077423095703 C 744.601318359375 205.6077423095703 742.9793701171875 204.6714019775391 741.4135131835938 203.7674102783203 L 741.4085083007813 203.7645263671875 C 741.4058837890625 203.7630310058594 741.4035034179688 203.7616577148438 741.4009399414063 203.7601623535156 L 738.5390014648438 202.1079711914063 L 739.0390014648438 201.241943359375 Z M 726.9143676757813 194.2423858642578 L 732.9766845703125 197.7421569824219 L 732.4766845703125 198.6082000732422 C 732.4766845703125 198.6082000732422 731.6420288085938 198.1263427734375 730.5919189453125 197.5201416015625 L 730.591552734375 197.5199127197266 C 730.5869140625 197.5172119140625 730.5825805664063 197.5147094726563 730.577880859375 197.5120239257813 L 726.4143676757813 195.1084289550781 L 726.9143676757813 194.2423858642578 Z M 714.7897338867188 187.2428436279297 L 720.85205078125 190.7426147460938 L 720.3521118164063 191.6086578369141 C 720.3521118164063 191.6086578369141 714.289794921875 188.10888671875 714.289794921875 188.10888671875 L 714.7897338867188 187.2428436279297 Z M 702.6651000976563 180.2433013916016 L 708.7274169921875 183.7430877685547 L 708.2274780273438 184.6091156005859 L 702.77734375 181.4627380371094 C 702.777099609375 181.4626159667969 702.7769165039063 181.4625091552734 702.7766723632813 181.4623718261719 L 702.695556640625 181.41552734375 C 702.6953125 181.4154052734375 702.6951293945313 181.4152984619141 702.6949462890625 181.4151763916016 L 702.6908569335938 181.4128265380859 C 702.6900634765625 181.4123840332031 702.6893920898438 181.4119720458984 702.6885986328125 181.4115295410156 L 702.6759643554688 181.4042205810547 C 702.675048828125 181.4037170410156 702.6739501953125 181.4030609130859 702.673095703125 181.4025573730469 L 702.6701049804688 181.4008483886719 C 702.6678466796875 181.3995361328125 702.6654052734375 181.3981475830078 702.6631469726563 181.3968505859375 L 702.6603393554688 181.3952331542969 C 702.65771484375 181.3936767578125 702.6549072265625 181.3920745849609 702.6522827148438 181.3905487060547 L 702.6498413085938 181.3891754150391 C 702.64892578125 181.3886108398438 702.6477661132813 181.3879547119141 702.6467895507813 181.3874053955078 L 702.6437377929688 181.3856506347656 C 702.6436767578125 181.3855895996094 702.6433715820313 181.3854370117188 702.643310546875 181.3853759765625 L 702.6354370117188 181.3808288574219 C 702.6341552734375 181.3801116943359 702.6331176757813 181.3795013427734 702.6318969726563 181.3787841796875 L 702.6297607421875 181.3775634765625 C 702.6275024414063 181.3762512207031 702.625244140625 181.3749694824219 702.6229858398438 181.3736572265625 L 702.5955810546875 181.3578338623047 C 702.5946044921875 181.3572540283203 702.59375 181.3567657470703 702.5927124023438 181.3561859130859 L 702.5902099609375 181.354736328125 C 702.5878295898438 181.3533477783203 702.5855102539063 181.3520050048828 702.5831298828125 181.3506317138672 L 702.580322265625 181.3490142822266 C 702.5795288085938 181.3485565185547 702.5786743164063 181.3480682373047 702.577880859375 181.3476104736328 L 702.5751342773438 181.3460083007813 C 702.5750122070313 181.3459625244141 702.5746459960938 181.3457489013672 702.5745849609375 181.3456878662109 L 702.5515747070313 181.3324432373047 C 702.5507202148438 181.3319396972656 702.5499877929688 181.3314971923828 702.549072265625 181.3309936523438 L 702.548828125 181.3308563232422 C 702.5479736328125 181.3303527832031 702.5472412109375 181.3299407958984 702.54638671875 181.3294372558594 L 702.5421752929688 181.3269805908203 C 702.5398559570313 181.3256683349609 702.53759765625 181.3243560791016 702.5353393554688 181.3230438232422 L 702.5350952148438 181.3229064941406 C 702.5328369140625 181.3215942382813 702.5304565429688 181.3202209472656 702.5281982421875 181.3189239501953 L 702.5242309570313 181.316650390625 C 702.5234985351563 181.3162231445313 702.522705078125 181.3157653808594 702.52197265625 181.3153228759766 L 702.521728515625 181.315185546875 C 702.5203857421875 181.3144226074219 702.51904296875 181.3136291503906 702.5177001953125 181.3128814697266 L 702.5166015625 181.312255859375 C 702.5153198242188 181.3115081787109 702.51416015625 181.3108215332031 702.5128784179688 181.3100891113281 L 702.50341796875 181.3046264648438 C 702.502685546875 181.3042144775391 702.502197265625 181.3039093017578 702.50146484375 181.3034973144531 L 702.488037109375 181.2957458496094 C 702.486328125 181.2947692871094 702.4847412109375 181.2938385009766 702.4830322265625 181.2928619384766 L 702.4820556640625 181.2923126220703 C 702.4798583984375 181.2910308837891 702.4776000976563 181.2897338867188 702.4754028320313 181.2884674072266 L 702.4690551757813 181.2847900390625 C 702.4683837890625 181.2843933105469 702.4677734375 181.2840576171875 702.4671020507813 181.2836608886719 L 702.46435546875 181.2820587158203 C 702.4639282226563 181.2818145751953 702.4633178710938 181.2814788818359 702.462890625 181.2812194824219 L 702.4517822265625 181.2748107910156 C 702.4515991210938 181.2747192382813 702.4513549804688 181.2745819091797 702.451171875 181.2744750976563 L 702.4359130859375 181.2656402587891 C 702.4357299804688 181.2655487060547 702.4354858398438 181.2654113769531 702.435302734375 181.2653045654297 L 702.3920288085938 181.2403106689453 C 702.3910522460938 181.23974609375 702.389892578125 181.2390899658203 702.388916015625 181.2385101318359 L 702.3871459960938 181.2375030517578 C 702.385498046875 181.2365417480469 702.3839111328125 181.2356567382813 702.38232421875 181.2346954345703 L 702.379638671875 181.233154296875 C 702.3780517578125 181.2322540283203 702.3763427734375 181.2312774658203 702.3748168945313 181.2303924560547 L 702.3727416992188 181.2291870117188 C 702.3722534179688 181.2288970947266 702.371826171875 181.2286376953125 702.3712768554688 181.2283477783203 L 702.3626098632813 181.2233276367188 C 702.3621215820313 181.2230377197266 702.361572265625 181.2227325439453 702.361083984375 181.2224426269531 L 702.3584594726563 181.220947265625 C 702.3582763671875 181.2208251953125 702.3579711914063 181.2206726074219 702.3577880859375 181.2205352783203 L 702.3556518554688 181.2193145751953 C 702.3553466796875 181.2191467285156 702.3550415039063 181.2189483642578 702.354736328125 181.2187957763672 L 702.351806640625 181.2171020507813 C 702.3501586914063 181.2161407470703 702.348388671875 181.2151031494141 702.3467407226563 181.2141571044922 L 702.3463745117188 181.2139739990234 C 702.3445434570313 181.2129058837891 702.3425903320313 181.2117919921875 702.3407592773438 181.2107238769531 L 702.3385009765625 181.2094268798828 C 702.3350830078125 181.2074432373047 702.33154296875 181.2054138183594 702.3282470703125 181.2034912109375 L 702.3262939453125 181.2023773193359 C 702.3257446289063 181.2020416259766 702.3250732421875 181.2016754150391 702.3245239257813 181.2013397216797 L 702.3233642578125 181.2006683349609 C 702.322998046875 181.2004852294922 702.3228149414063 181.2003631591797 702.322509765625 181.2001800537109 L 702.3165283203125 181.1967315673828 C 702.3165283203125 181.1967315673828 702.3165283203125 181.1967163085938 702.3165283203125 181.1967163085938 L 702.3124389648438 181.1943817138672 C 702.3115234375 181.19384765625 702.3106079101563 181.1932983398438 702.3096313476563 181.1927642822266 L 702.3084716796875 181.1920928955078 C 702.306884765625 181.1911773681641 702.3053588867188 181.1902770996094 702.3037719726563 181.1893615722656 L 702.3024291992188 181.1885986328125 C 702.299072265625 181.1866455078125 702.2957153320313 181.1847229003906 702.29248046875 181.1828308105469 L 702.2908325195313 181.1819000244141 C 702.289306640625 181.1810302734375 702.287841796875 181.18017578125 702.286376953125 181.1793212890625 L 702.2861328125 181.1791687011719 C 702.2845458984375 181.1782836914063 702.2830200195313 181.1773681640625 702.281494140625 181.1764984130859 L 702.280517578125 181.1759338378906 C 702.2788696289063 181.1750030517578 702.27734375 181.1741027832031 702.2757568359375 181.1731872558594 L 702.2750244140625 181.1727752685547 C 702.2737426757813 181.1720275878906 702.2725219726563 181.1713256835938 702.271240234375 181.1705932617188 L 702.2687377929688 181.1691436767578 C 702.265869140625 181.1674957275391 702.26318359375 181.1659240722656 702.2604370117188 181.1643371582031 L 702.2603149414063 181.1642761230469 C 702.2572631835938 181.1625213623047 702.2543334960938 181.1608276367188 702.2514038085938 181.1591491699219 L 702.2501220703125 181.1584014892578 C 702.24951171875 181.1580352783203 702.2489013671875 181.1576843261719 702.248291015625 181.1573181152344 L 702.2445678710938 181.1551818847656 C 702.2438354492188 181.1547698974609 702.2431640625 181.1543884277344 702.2424926757813 181.1539916992188 L 702.2411499023438 181.1531982421875 C 702.24072265625 181.1529693603516 702.2403564453125 181.1527557373047 702.2399291992188 181.1525115966797 L 702.2389526367188 181.1519470214844 C 702.23876953125 181.1518402099609 702.238525390625 181.1517028808594 702.2383422851563 181.1515960693359 L 702.2301635742188 181.1468811035156 C 702.2301635742188 181.1468811035156 702.2301025390625 181.1468505859375 702.2301025390625 181.1468505859375 L 702.2286376953125 181.1459808349609 C 702.2276611328125 181.1454315185547 702.2266845703125 181.1448516845703 702.2257080078125 181.1443176269531 L 702.2246704101563 181.1436920166016 C 702.2229614257813 181.1427307128906 702.2213134765625 181.1417541503906 702.2197265625 181.1408386230469 L 702.2188110351563 181.1403350830078 C 702.2186279296875 181.1402282714844 702.2184448242188 181.1401214599609 702.21826171875 181.1399993896484 L 702.217041015625 181.1392822265625 C 702.2167358398438 181.1391143798828 702.2163696289063 181.138916015625 702.216064453125 181.1387329101563 L 702.2154541015625 181.1383819580078 C 702.2149658203125 181.1381225585938 702.2144775390625 181.1378021240234 702.2139892578125 181.1375427246094 L 702.2138671875 181.1374664306641 C 702.212890625 181.1369171142578 702.2119750976563 181.1363677978516 702.2110595703125 181.1358337402344 L 702.2100830078125 181.1352996826172 C 702.2091674804688 181.134765625 702.208251953125 181.1342315673828 702.2073974609375 181.1337127685547 L 702.2068481445313 181.1334075927734 C 702.2064208984375 181.1331787109375 702.2060546875 181.1329498291016 702.2056274414063 181.1327209472656 L 702.2051391601563 181.1324157714844 C 702.2048950195313 181.1322937011719 702.2047119140625 181.1321868896484 702.2045288085938 181.132080078125 L 702.2032470703125 181.1313323974609 C 702.201416015625 181.1302795410156 702.19970703125 181.1293029785156 702.1980590820313 181.1283416748047 L 702.197509765625 181.1280212402344 C 702.1971435546875 181.1278228759766 702.19677734375 181.1276092529297 702.1964111328125 181.1273956298828 L 702.1962280273438 181.1272888183594 C 702.1958618164063 181.1270751953125 702.1954345703125 181.1268157958984 702.195068359375 181.1266021728516 L 702.1947631835938 181.1264495849609 C 702.1939697265625 181.1259918212891 702.1932373046875 181.1255493164063 702.1925048828125 181.1251220703125 L 702.19189453125 181.1247863769531 C 702.191162109375 181.1243591308594 702.1904296875 181.1239318847656 702.189697265625 181.1235198974609 L 702.1895141601563 181.1233978271484 C 702.1887817382813 181.1229858398438 702.1880493164063 181.1225738525391 702.1873779296875 181.1221771240234 L 702.186767578125 181.1218109130859 C 702.1862182617188 181.1215057373047 702.1856689453125 181.1212005615234 702.1851806640625 181.1209106445313 L 702.1845703125 181.1205444335938 C 702.1842651367188 181.120361328125 702.1839599609375 181.1201934814453 702.1836547851563 181.1200256347656 L 702.1810302734375 181.1184997558594 C 702.1809692382813 181.1184692382813 702.180908203125 181.1184539794922 702.180908203125 181.1184234619141 L 702.1795043945313 181.1176300048828 C 702.1792602539063 181.1174774169922 702.1790161132813 181.1173553466797 702.1787719726563 181.1172027587891 L 702.1781616210938 181.1168670654297 C 702.1777954101563 181.1166381835938 702.1774291992188 181.1164093017578 702.177001953125 181.1161956787109 L 702.1746215820313 181.1148071289063 C 702.1737670898438 181.1143035888672 702.1729736328125 181.1138458251953 702.1721801757813 181.1134185791016 L 702.1718139648438 181.1132049560547 C 702.1715087890625 181.1130065917969 702.171142578125 181.1128082275391 702.1708374023438 181.1126251220703 L 702.1704711914063 181.1123962402344 C 702.17041015625 181.1123809814453 702.1703491210938 181.1123504638672 702.1703491210938 181.1123352050781 L 702.1683959960938 181.1112060546875 C 702.1681518554688 181.111083984375 702.16796875 181.1109771728516 702.1677856445313 181.1108551025391 L 702.1675415039063 181.1107025146484 C 702.1672973632813 181.1105804443359 702.1671142578125 181.1104583740234 702.1668701171875 181.1103515625 L 702.1668090820313 181.1103210449219 C 702.166748046875 181.1102752685547 702.1666870117188 181.1102294921875 702.1666259765625 181.1101989746094 L 702.1661376953125 181.1098937988281 C 702.1661376953125 181.1098937988281 702.1661376953125 181.1098937988281 702.1661376953125 181.1098937988281 L 702.1657104492188 181.1096801757813 C 702.1657104492188 181.1096496582031 702.1656494140625 181.1096343994141 702.1655883789063 181.1096038818359 L 702.16552734375 181.1095581054688 C 702.16552734375 181.1095581054688 702.16552734375 181.1095428466797 702.1654663085938 181.1095428466797 L 702.1653442382813 181.1094665527344 C 702.1653442382813 181.1094665527344 702.1653442382813 181.1094665527344 702.1653442382813 181.1094512939453 L 702.165283203125 181.1094207763672 C 702.165283203125 181.1094055175781 702.165283203125 181.1094055175781 702.1652221679688 181.1094055175781 L 702.1651611328125 181.1093444824219 L 702.6651000976563 180.2433013916016 Z M 690.54052734375 173.2437591552734 L 696.602783203125 176.7435150146484 L 696.1028442382813 177.6095733642578 L 690.04052734375 174.1098022460938 L 690.54052734375 173.2437591552734 Z M 678.4158935546875 166.2442169189453 L 684.4782104492188 169.7439880371094 L 683.9782104492188 170.6100158691406 C 683.9782104492188 170.6100158691406 682.2686157226563 169.6230621337891 680.6652221679688 168.6974334716797 L 680.661865234375 168.6954803466797 C 680.656494140625 168.6923980712891 680.6509399414063 168.6891784667969 680.6455688476563 168.6860961914063 L 680.6455688476563 168.6860809326172 C 680.6396484375 168.6826782226563 680.6337890625 168.6792907714844 680.6279296875 168.6758880615234 L 680.6279296875 168.6758880615234 C 680.6192626953125 168.6708831787109 680.6104125976563 168.6657867431641 680.6017456054688 168.6607971191406 L 680.5999755859375 168.6597747802734 C 680.598876953125 168.6591339111328 680.597412109375 168.6582794189453 680.5963134765625 168.6576538085938 L 680.5819091796875 168.6493530273438 C 680.5804443359375 168.6484985351563 680.5792236328125 168.6477966308594 680.5777587890625 168.6469573974609 L 680.5726318359375 168.6439666748047 C 680.57080078125 168.6429138183594 680.5689086914063 168.6418304443359 680.5670776367188 168.6407775878906 L 680.5631103515625 168.6384735107422 C 680.5625610351563 168.6381530761719 680.56201171875 168.6378326416016 680.5614624023438 168.6375122070313 L 677.9158935546875 167.1102600097656 L 678.4158935546875 166.2442169189453 Z M 666.291259765625 159.2446594238281 L 672.3535766601563 162.7444458007813 L 671.8536376953125 163.6104736328125 C 671.8536376953125 163.6104736328125 668.06640625 161.4241333007813 666.478759765625 160.5075988769531 L 666.477294921875 160.5067443847656 C 666.475830078125 160.5058898925781 666.47412109375 160.5048980712891 666.47265625 160.5040588378906 L 666.4713745117188 160.5033416748047 C 666.4506225585938 160.4913635253906 666.4300537109375 160.4794769287109 666.4100952148438 160.4679412841797 L 666.4065551757813 160.4659118652344 C 666.4005737304688 160.4624481201172 666.3945922851563 160.4589996337891 666.388671875 160.4555969238281 L 666.3858642578125 160.4539489746094 C 666.3842163085938 160.4530181884766 666.3823852539063 160.4519653320313 666.3807983398438 160.4510345458984 L 666.3760986328125 160.4483184814453 C 666.3735961914063 160.4468688964844 666.3710327148438 160.4454040527344 666.3685302734375 160.4439544677734 L 666.3660278320313 160.4425201416016 C 666.362060546875 160.4402160644531 666.3582153320313 160.4380035400391 666.3543090820313 160.4357299804688 L 666.3531494140625 160.43505859375 C 666.3505249023438 160.4335632324219 666.3477783203125 160.4319915771484 666.34521484375 160.4304962158203 L 666.3302001953125 160.4218292236328 C 666.3286743164063 160.4209289550781 666.3272705078125 160.4201202392578 666.3257446289063 160.4192352294922 L 665.7913208007813 160.1107177734375 L 666.291259765625 159.2446594238281 Z M 670.5935668945313 153.1111602783203 L 671.0935668945313 153.9772186279297 L 665.03125 157.4769744873047 L 664.53125 156.6109466552734 L 670.5935668945313 153.1111755371094 Z M 682.7182006835938 146.1116180419922 L 683.2181396484375 146.9776611328125 L 677.1558227539063 150.4774475097656 L 676.6558837890625 149.6114044189453 C 676.6558837890625 149.6114044189453 677.898193359375 148.8942108154297 679.2581176757813 148.109130859375 L 679.2647094726563 148.1053161621094 C 679.2665405273438 148.1042633056641 679.2686767578125 148.10302734375 679.2705078125 148.1019744873047 L 679.27099609375 148.1016998291016 C 679.2794189453125 148.0968170166016 679.2877807617188 148.0920104980469 679.2962036132813 148.0871276855469 L 679.2984619140625 148.0858306884766 C 679.303466796875 148.0829620361328 679.3084716796875 148.0800628662109 679.3134155273438 148.0771942138672 L 679.3173217773438 148.0749359130859 C 679.3187866210938 148.0740966796875 679.3203125 148.0732269287109 679.32177734375 148.0723876953125 L 682.7182006835938 146.1116333007813 Z M 694.8428344726563 139.1120758056641 L 695.3427734375 139.9781188964844 L 689.2804565429688 143.4779052734375 L 688.780517578125 142.6118621826172 C 688.780517578125 142.6118621826172 693.094970703125 140.1211090087891 694.4443359375 139.3421325683594 L 694.44580078125 139.3412933349609 C 694.4517211914063 139.3378601074219 694.4575805664063 139.3344879150391 694.46337890625 139.3311157226563 L 694.4637451171875 139.3309173583984 C 694.4693603515625 139.3276672363281 694.4749755859375 139.3244323730469 694.4805297851563 139.3212432861328 L 694.4829711914063 139.31982421875 C 694.4853515625 139.3184204101563 694.48779296875 139.3170318603516 694.4901733398438 139.3156433105469 L 694.4910888671875 139.3151397705078 C 694.4937744140625 139.3135833740234 694.4962768554688 139.3121185302734 694.4989624023438 139.3105926513672 L 694.5 139.3099670410156 C 694.5043334960938 139.3074951171875 694.5086669921875 139.3049621582031 694.512939453125 139.3025360107422 L 694.527099609375 139.2943267822266 C 694.5274658203125 139.2941284179688 694.527587890625 139.2940521240234 694.5279541015625 139.2938385009766 L 694.8428344726563 139.1120758056641 Z M 706.9674072265625 132.1125335693359 L 707.4674072265625 132.9785766601563 L 701.4050903320313 136.4783477783203 L 700.9051513671875 135.6123046875 L 702.2677612304688 134.8256530761719 C 702.2691650390625 134.8248291015625 702.27099609375 134.8237915039063 702.2723999023438 134.8229675292969 L 702.288818359375 134.8134918212891 C 702.2905883789063 134.8125 702.29248046875 134.8113861083984 702.294189453125 134.8103790283203 L 702.329833984375 134.7898254394531 C 702.3307495117188 134.7892761230469 702.3319091796875 134.7886047363281 702.3328857421875 134.7880554199219 L 702.3345947265625 134.7870788574219 C 702.336181640625 134.7861480712891 702.337890625 134.7851715087891 702.3394775390625 134.7842407226563 L 702.3438110351563 134.7817535400391 C 702.34814453125 134.7792663574219 702.3526000976563 134.7766876220703 702.35693359375 134.7741851806641 L 702.3576049804688 134.7737731933594 C 702.3621215820313 134.7711791992188 702.36669921875 134.7685546875 702.3712158203125 134.7659454345703 L 702.374267578125 134.7641906738281 C 702.3944091796875 134.7525482177734 702.4144287109375 134.7409820556641 702.434814453125 134.7292022705078 L 702.4349365234375 134.7291259765625 C 704.2308349609375 133.6923522949219 706.9674072265625 132.1125335693359 706.9674072265625 132.1125335693359 Z M 717.7232055664063 125.9032135009766 C 717.7232055664063 125.9032135009766 717.7232055664063 125.9032287597656 717.7232666015625 125.9032440185547 L 717.7232055664063 125.9032135009766 C 717.7431640625 125.9147491455078 723.7855224609375 129.4029998779297 723.7855224609375 129.4029998779297 L 723.2855224609375 130.26904296875 L 717.7232055664063 127.0578918457031 L 713.5297241210938 129.4788055419922 L 713.0297241210938 128.6127624511719 C 713.0297241210938 128.6127624511719 717.7232055664063 125.9032135009766 717.7232055664063 125.9032135009766 L 717.7232055664063 125.9032135009766 Z" stroke="none" fill="#5d64d2"/>
      </g>
      <g id="Rectangle_70" data-name="Rectangle 70" fill="rgba(69,72,176,0.1)" stroke-dasharray="7 7">
        <path d="M81.177,188.647l86.079-51.722,70.545,39.1-86.079,51.722Z" stroke="none"/>
        <path d="M 151.7218933105469 227.7441864013672 C 151.7218933105469 227.7441864013672 151.6982116699219 227.7310638427734 151.6537780761719 227.7064514160156 L 151.65283203125 227.7059173583984 C 151.6473083496094 227.7028503417969 151.6415557861328 227.6996765136719 151.6354064941406 227.6962585449219 L 151.6352996826172 227.6961975097656 C 151.6290435791016 227.6927337646484 151.6225280761719 227.6891174316406 151.6156463623047 227.685302734375 L 151.6156158447266 227.6852874755859 C 151.6087799072266 227.6815032958984 151.6015777587891 227.6775207519531 151.5941314697266 227.6733856201172 L 151.5938720703125 227.6732482910156 C 151.5902252197266 227.6712188720703 151.5865478515625 227.669189453125 151.582763671875 227.6670837402344 L 151.5821685791016 227.666748046875 C 151.5794677734375 227.6652679443359 151.5767364501953 227.6637420654297 151.573974609375 227.6622161865234 L 151.5733184814453 227.6618499755859 C 151.57275390625 227.6615295410156 151.5721893310547 227.6612243652344 151.5716247558594 227.6609039306641 L 151.5694732666016 227.6597290039063 C 151.5659790039063 227.6577758789063 151.5622863769531 227.6557312011719 151.5586700439453 227.6537322998047 L 151.5576782226563 227.6531829833984 C 151.5537872314453 227.6510314941406 151.5498504638672 227.6488494873047 151.5458374023438 227.6466217041016 L 151.5443878173828 227.6458129882813 C 151.5426025390625 227.6448211669922 151.5408172607422 227.6438446044922 151.5390167236328 227.6428375244141 L 151.5380401611328 227.6423034667969 C 151.5374145507813 227.6419525146484 151.5366973876953 227.6415557861328 151.5360717773438 227.6412048339844 L 151.5338439941406 227.6399688720703 C 151.5337677001953 227.6399230957031 151.5335998535156 227.6398315429688 151.5335235595703 227.6398010253906 L 151.5306701660156 227.6382141113281 C 151.5291137695313 227.6373443603516 151.5274505615234 227.6364288330078 151.52587890625 227.6355590820313 L 151.5244445800781 227.634765625 C 151.5237274169922 227.6343688964844 151.5229949951172 227.6339569091797 151.5222625732422 227.6335601806641 L 151.5201721191406 227.6324005126953 C 151.5200958251953 227.6323547363281 151.5199432373047 227.6322631835938 151.5198669433594 227.6322326660156 L 151.5141143798828 227.6290435791016 C 151.5134582519531 227.6286773681641 151.5126342773438 227.6282196044922 151.5119781494141 227.6278533935547 L 151.5106658935547 227.6271209716797 C 151.5088043212891 227.6260986328125 151.5068817138672 227.6250305175781 151.5050048828125 227.6239929199219 L 151.5029754638672 227.6228637695313 C 151.5023803710938 227.6225280761719 151.5019226074219 227.6222839355469 151.5013122558594 227.6219482421875 L 151.4992370605469 227.6207885742188 C 151.498779296875 227.6205444335938 151.4983825683594 227.6203155517578 151.4979248046875 227.6200714111328 L 151.4950256347656 227.6184539794922 C 151.4949493408203 227.6184234619141 151.494873046875 227.6183776855469 151.4947967529297 227.6183319091797 L 151.4839324951172 227.6123199462891 C 151.4837799072266 227.6122283935547 151.4837646484375 227.6122131347656 151.4835968017578 227.6121215820313 L 145.5993041992188 224.3509826660156 L 146.0840606689453 223.4763336181641 L 152.2066345214844 226.8695373535156 L 151.7218933105469 227.7441864013672 L 151.7218933105469 227.7441864013672 Z M 139.4767150878906 220.9577789306641 C 139.4767150878906 220.9577789306641 136.9026336669922 219.5312042236328 135.0925598144531 218.5280303955078 L 135.0919494628906 218.5276947021484 C 135.0757598876953 218.5187225341797 135.0595397949219 218.5097351074219 135.0434875488281 218.5008392333984 L 135.0432586669922 218.5007019042969 C 135.0408935546875 218.4994049072266 135.0387725830078 218.4982299804688 135.0364074707031 218.4969177246094 L 135.0069885253906 218.4806060791016 C 135.0069885253906 218.4806060791016 135.0068969726563 218.4805603027344 135.0068969726563 218.4805603027344 L 133.3541107177734 217.5645751953125 L 133.8388519287109 216.6899108886719 L 139.9614562988281 220.0831146240234 L 139.4767150878906 220.9577789306641 Z M 127.2315139770508 214.1713562011719 C 127.2315139770508 214.1713562011719 121.1089324951172 210.7781524658203 121.1089324951172 210.7781524658203 L 121.5936737060547 209.9034881591797 L 127.7162704467773 213.2967071533203 L 127.2315139770508 214.1713562011719 Z M 114.9863357543945 207.3849487304688 L 112.9354934692383 206.2483520507813 C 112.9351348876953 206.2481536865234 112.9345779418945 206.2478332519531 112.9342193603516 206.2476348876953 L 112.9192123413086 206.2393188476563 C 112.9185028076172 206.2389373779297 112.9181365966797 206.2387237548828 112.9174270629883 206.2383422851563 L 112.8952865600586 206.2260589599609 C 112.8904800415039 206.2234039306641 112.8855133056641 206.2206420898438 112.8806915283203 206.2179718017578 L 112.8784713745117 206.2167510986328 C 111.1075973510742 205.2353057861328 108.8637542724609 203.9917297363281 108.8637542724609 203.9917297363281 L 109.3484954833984 203.1170959472656 L 115.471076965332 206.5102996826172 L 114.9863357543945 207.3849487304688 Z M 102.7411499023438 200.5985260009766 C 102.7411499023438 200.5985260009766 102.5259399414063 200.4792633056641 102.1763687133789 200.2855224609375 L 102.175910949707 200.2852630615234 C 102.1475524902344 200.2695465087891 102.1183547973633 200.2533721923828 102.0882720947266 200.2366943359375 L 102.0838317871094 200.2342376708984 C 102.080680847168 200.2324981689453 102.0775756835938 200.2307739257813 102.0744094848633 200.2290191650391 L 102.0741271972656 200.2288665771484 C 102.0704727172852 200.2268371582031 102.0670776367188 200.2249603271484 102.0634002685547 200.2229156494141 L 102.0619201660156 200.2220916748047 C 102.0562744140625 200.2189636230469 102.0505218505859 200.2157745361328 102.0448150634766 200.2126159667969 L 102.0447006225586 200.2125549316406 C 102.043342590332 200.2117919921875 102.0420532226563 200.2110748291016 102.0406799316406 200.2103271484375 L 102.0325546264648 200.2058258056641 C 102.0309295654297 200.2049255371094 102.0292510986328 200.2039947509766 102.0276184082031 200.2030792236328 L 102.0258941650391 200.2021331787109 C 102.0235137939453 200.2008056640625 102.0213851928711 200.1996307373047 102.0189895629883 200.1983032226563 L 96.61856079101563 197.205322265625 L 97.10329437255859 196.3306732177734 L 103.2258911132813 199.723876953125 L 102.7411499023438 200.5985260009766 Z M 90.4959716796875 193.8121185302734 C 90.4959716796875 193.8121185302734 87.35069274902344 192.0689697265625 85.56882476806641 191.0814361572266 L 85.56768798828125 191.080810546875 C 85.56616973876953 191.0799713134766 85.56430053710938 191.0789337158203 85.56278991699219 191.0780944824219 L 85.53694915771484 191.0637817382813 C 85.53574371337891 191.0631103515625 85.53488922119141 191.0626373291016 85.53368377685547 191.0619659423828 L 85.5174560546875 191.052978515625 C 85.51566314697266 191.0519714355469 85.51399230957031 191.0510559082031 85.51220703125 191.0500640869141 L 85.50958251953125 191.0486145019531 C 85.50779724121094 191.0476226806641 85.50637054443359 191.0468292236328 85.50458526611328 191.0458374023438 L 85.50064086914063 191.0436553955078 C 85.50034332275391 191.0434875488281 85.50004577636719 191.0433197021484 85.49974822998047 191.0431518554688 L 85.49344635009766 191.0396575927734 C 85.49225616455078 191.0390014648438 85.49081420898438 191.0382080078125 85.4896240234375 191.0375518798828 L 85.4876708984375 191.0364685058594 C 85.48707580566406 191.0361328125 85.48607635498047 191.0355834960938 85.48548889160156 191.0352478027344 L 85.47962188720703 191.0320129394531 C 85.47888946533203 191.0316009521484 85.47785949707031 191.0310211181641 85.47711944580078 191.0306243896484 L 84.37337493896484 190.4189147949219 L 84.85811614990234 189.5442504882813 L 90.980712890625 192.9374542236328 L 90.4959716796875 193.8121185302734 Z M 84.55977630615234 187.7815093994141 L 84.04473114013672 186.9243469238281 L 84.26844024658203 186.7899322509766 C 84.26873779296875 186.7897644042969 84.26909637451172 186.78955078125 84.26939392089844 186.7893676757813 L 84.27371215820313 186.7867736816406 C 84.27462768554688 186.7862243652344 84.27556610107422 186.7856597900391 84.27648162841797 186.7851104736328 L 84.27882385253906 186.78369140625 C 84.27944183349609 186.7833251953125 84.27993774414063 186.7830352783203 84.28055572509766 186.7826538085938 L 84.28668212890625 186.7789764404297 C 84.28714752197266 186.7787017822266 84.2877197265625 186.7783508300781 84.28819274902344 186.778076171875 L 84.29386901855469 186.774658203125 C 84.29441833496094 186.7743225097656 84.29511260986328 186.7739105224609 84.29566955566406 186.7735748291016 L 84.29802703857422 186.7721557617188 C 84.29977416992188 186.7711029052734 84.30141448974609 186.7701263427734 84.30318450927734 186.7690582275391 L 84.33046722412109 186.7526702880859 C 84.33248138427734 186.75146484375 84.33441925048828 186.7502899169922 84.33644866943359 186.7490692138672 L 84.34135437011719 186.7461242675781 C 85.55055236816406 186.0195617675781 90.04491424560547 183.319091796875 90.04491424560547 183.319091796875 L 90.55995178222656 184.1762542724609 L 84.55977630615234 187.7815093994141 Z M 96.56011199951172 180.5709991455078 L 96.04507446289063 179.7138061523438 L 101.6012344360352 176.3753509521484 C 101.6014404296875 176.3752288818359 101.6016311645508 176.3751068115234 101.6018295288086 176.3749847412109 L 101.6053466796875 176.3728790283203 C 101.6075744628906 176.3715362548828 101.6095886230469 176.3703308105469 101.6118011474609 176.3690032958984 L 101.6157455444336 176.3666229248047 C 101.6162490844727 176.3663330078125 101.6168899536133 176.3659362792969 101.6173858642578 176.3656463623047 L 101.61962890625 176.3642883300781 C 101.6203231811523 176.3638763427734 101.6210632324219 176.3634338378906 101.6217651367188 176.3630065917969 L 101.624397277832 176.3614196777344 C 101.62548828125 176.3607635498047 101.6266784667969 176.3600616455078 101.6277694702148 176.3594055175781 L 101.6283874511719 176.3590240478516 C 101.6294784545898 176.3583679199219 101.6305770874023 176.3577117919922 101.6316604614258 176.3570556640625 L 101.6339645385742 176.3556823730469 C 101.6386947631836 176.3528442382813 101.6433258056641 176.3500518798828 101.6479797363281 176.3472595214844 L 101.6580200195313 176.3412322998047 C 101.6584014892578 176.3410034179688 101.6586151123047 176.3408660888672 101.6589965820313 176.3406372070313 L 101.6617813110352 176.3389739990234 C 101.6644515991211 176.3373565673828 101.6669311523438 176.3358764648438 101.6695785522461 176.3342742919922 L 101.6702041625977 176.3339080810547 C 101.6881637573242 176.3231048583984 101.7056732177734 176.3125915527344 101.7225036621094 176.3024749755859 L 101.722785949707 176.3023071289063 C 101.7451858520508 176.2888488769531 101.7664337158203 176.2760772705078 101.7867279052734 176.2638854980469 L 101.7885437011719 176.2628021240234 C 101.9518661499023 176.1646575927734 102.0452499389648 176.1085510253906 102.0452499389648 176.1085510253906 L 102.5602951049805 176.9657135009766 L 96.56011199951172 180.5709991455078 Z M 108.5604553222656 173.3604583740234 L 108.04541015625 172.5032958984375 L 114.0456008911133 168.8980255126953 L 114.5606307983398 169.7551879882813 L 108.5604553222656 173.3604583740234 Z M 120.5608139038086 166.1499328613281 L 120.0457763671875 165.2927551269531 C 120.0457763671875 165.2927551269531 126.0459365844727 161.6875 126.0459365844727 161.6875 L 126.5609741210938 162.5446472167969 L 120.5608139038086 166.1499328613281 Z M 132.5611572265625 158.9393920898438 L 132.0461120605469 158.0822296142578 C 132.0461120605469 158.0822296142578 133.6882629394531 157.0955200195313 135.2543487548828 156.1545257568359 L 135.2594146728516 156.1514739990234 C 135.2614288330078 156.1502685546875 135.2630767822266 156.1492767333984 135.2650909423828 156.1480712890625 L 135.2688140869141 156.1458282470703 C 135.2693634033203 156.1454925537109 135.2698669433594 156.1451873779297 135.2704162597656 156.1448669433594 L 135.2787628173828 156.1398468017578 C 135.2789459228516 156.1397399902344 135.2790679931641 156.1396636962891 135.2792510986328 156.1395568847656 L 138.0462799072266 154.4769592285156 L 138.5613098144531 155.3341369628906 L 132.5611572265625 158.9393920898438 Z M 144.5614929199219 151.7288513183594 L 144.0464477539063 150.8716888427734 C 144.0464477539063 150.8716888427734 150.046630859375 147.2664337158203 150.046630859375 147.2664337158203 L 150.5616607666016 148.1235961914063 L 144.5614929199219 151.7288513183594 Z M 156.5618286132813 144.5183258056641 L 156.0467987060547 143.6611480712891 L 161.0618438720703 140.6478118896484 C 161.0640869140625 140.6464691162109 161.0663757324219 140.6450958251953 161.0686187744141 140.6437530517578 L 161.0709838867188 140.642333984375 C 161.073486328125 140.6408233642578 161.0759582519531 140.6393280029297 161.0784606933594 140.6378326416016 L 161.0824584960938 140.6354370117188 C 161.0842590332031 140.6343536376953 161.0862731933594 140.6331329345703 161.0880737304688 140.6320495605469 L 161.0921020507813 140.629638671875 C 161.0952758789063 140.6277313232422 161.0982513427734 140.6259460449219 161.1014099121094 140.6240386962891 L 161.1097564697266 140.6190338134766 C 161.6720428466797 140.2811737060547 162.0469665527344 140.0558929443359 162.0469665527344 140.0558929443359 L 162.56201171875 140.9130554199219 L 156.5618286132813 144.5183258056641 Z M 173.7011260986328 141.6410980224609 L 167.5785369873047 138.2478942871094 L 168.0632781982422 137.3732299804688 L 170.8585205078125 138.9223937988281 C 170.8624267578125 138.924560546875 170.8662719726563 138.9266815185547 170.8701782226563 138.9288635253906 L 170.8756256103516 138.9318695068359 C 170.8866119384766 138.9379730224609 170.8971252441406 138.9437866210938 170.9081115722656 138.9498748779297 L 170.9109344482422 138.9514465332031 C 170.9342498779297 138.96435546875 170.9577178955078 138.9773712158203 170.9810485839844 138.9902954101563 L 170.981201171875 138.9903869628906 C 172.5581359863281 139.8643341064453 174.1858673095703 140.7664489746094 174.1858673095703 140.7664489746094 L 173.7011260986328 141.6410980224609 Z M 185.9463195800781 148.4275054931641 L 179.8237152099609 145.0343170166016 L 180.3084716796875 144.1596527099609 L 186.4310607910156 147.5528564453125 L 185.9463195800781 148.4275054931641 Z M 198.1914978027344 155.2139282226563 L 192.0689086914063 151.8207092285156 L 192.5536499023438 150.946044921875 L 197.6265106201172 153.7574920654297 C 197.6276702880859 153.7581329345703 197.6285552978516 153.7586212158203 197.6297149658203 153.7592620849609 L 197.6337585449219 153.7615051269531 C 197.6339111328125 153.7615966796875 197.6340789794922 153.7616882324219 197.6342163085938 153.7617645263672 L 197.6466674804688 153.7686614990234 C 197.6475372314453 153.7691497802734 197.6485443115234 153.7696990966797 197.6494140625 153.7701873779297 L 197.6538848876953 153.7726593017578 C 197.6567535400391 153.7742614746094 197.6597900390625 153.7759399414063 197.6626434326172 153.7775268554688 L 197.6749725341797 153.7843475341797 C 197.6753997802734 153.7845916748047 197.6759490966797 153.7848968505859 197.6763763427734 153.7851257324219 L 197.6801147460938 153.7872009277344 C 197.68310546875 153.7888641357422 197.6861877441406 153.7905731201172 197.6891784667969 153.7922210693359 L 197.6970672607422 153.7966003417969 C 197.6988983154297 153.797607421875 197.7010498046875 153.7987976074219 197.702880859375 153.7998199462891 L 197.7260894775391 153.8126831054688 C 197.7279052734375 153.8136901855469 197.7294616699219 153.8145599365234 197.7312774658203 153.8155517578125 L 197.7353820800781 153.8178253173828 C 197.7387237548828 153.8196868896484 197.7423248291016 153.8216857910156 197.7456512451172 153.8235168457031 L 197.7468109130859 153.8241729736328 C 198.3056793212891 154.1338958740234 198.6762542724609 154.3392791748047 198.6762542724609 154.3392791748047 L 198.1914978027344 155.2139282226563 Z M 210.4366912841797 162.0003356933594 L 204.3140869140625 158.6071319580078 L 204.798828125 157.7324676513672 C 204.798828125 157.7324676513672 206.1329040527344 158.4718322753906 207.5556030273438 159.2602996826172 L 207.5557250976563 159.2603607177734 C 207.5579528808594 159.2615966796875 207.5603332519531 159.2629241943359 207.5625610351563 159.26416015625 L 207.5933837890625 159.2812347412109 C 207.59765625 159.2836151123047 207.6022644042969 159.2861633300781 207.6065521240234 159.2885284423828 L 207.6114501953125 159.291259765625 C 207.6151733398438 159.2933197021484 207.6192016601563 159.2955474853516 207.6229248046875 159.297607421875 L 207.6289367675781 159.3009490966797 C 207.6311798095703 159.3021850585938 207.6332092285156 159.3033142089844 207.6354522705078 159.3045501708984 L 207.6573181152344 159.3166656494141 C 207.6580657958984 159.3170776367188 207.6590270996094 159.3176116943359 207.6597747802734 159.3180236816406 L 207.6657409667969 159.3213500976563 C 207.667236328125 159.3221740722656 207.66845703125 159.3228454589844 207.6699523925781 159.3236694335938 L 210.9214324951172 161.1256713867188 L 210.4366912841797 162.0003356933594 Z M 222.6818695068359 168.7867584228516 L 216.5592956542969 165.3935394287109 L 217.0440368652344 164.5188903808594 C 217.0440368652344 164.5188903808594 223.1666107177734 167.9120941162109 223.1666107177734 167.9120941162109 L 222.6818695068359 168.7867584228516 Z M 234.9270782470703 175.5731506347656 L 228.8044738769531 172.1799468994141 L 229.2892150878906 171.3052978515625 L 229.3199615478516 171.3223419189453 C 229.3199920654297 171.3223571777344 229.3200225830078 171.3223724365234 229.3200531005859 171.3223876953125 L 235.4118041992188 174.6985015869141 L 234.9270782470703 175.5731506347656 Z M 228.1421356201172 181.8262786865234 L 227.6270904541016 180.9691162109375 L 233.6272735595703 177.3638458251953 L 234.1423187255859 178.2210083007813 C 234.1423187255859 178.2210083007813 228.1421356201172 181.8262786865234 228.1421356201172 181.8262786865234 Z M 216.1417999267578 189.0368194580078 L 215.6267547607422 188.1796569824219 L 221.6269378662109 184.5743713378906 L 222.1419677734375 185.4315490722656 L 217.9220581054688 187.9671325683594 C 217.9217224121094 187.9673309326172 217.9215393066406 187.9674377441406 217.9212036132813 187.9676361083984 L 217.9143981933594 187.9717254638672 C 217.9138946533203 187.9720306396484 217.9138641357422 187.9720458984375 217.9133605957031 187.9723510742188 L 217.9010009765625 187.9797668457031 C 217.8991546630859 187.9808807373047 217.8974304199219 187.9819183349609 217.8955841064453 187.9830322265625 L 217.8917846679688 187.9853057861328 C 217.8547821044922 188.0075378417969 217.8180694580078 188.0296020507813 217.7817230224609 188.0514526367188 L 217.7810211181641 188.0518646240234 C 216.8506927490234 188.6108703613281 216.1417999267578 189.0368194580078 216.1417999267578 189.0368194580078 Z M 204.1414489746094 196.2473449707031 L 203.6264190673828 195.3901672363281 L 209.6265869140625 191.784912109375 L 210.1416320800781 192.6420745849609 C 210.1416320800781 192.6420745849609 209.3110809326172 193.14111328125 208.2679138183594 193.7679138183594 L 208.2676849365234 193.7680511474609 C 208.2651214599609 193.7695922851563 208.2624816894531 193.7711791992188 208.2599029541016 193.7727355957031 L 208.2592010498047 193.7731628417969 C 208.2569732666016 193.7744903564453 208.2544555664063 193.7760009765625 208.2522277832031 193.77734375 L 208.2395782470703 193.7849426269531 C 208.2359619140625 193.787109375 208.2323303222656 193.7892913818359 208.2287292480469 193.7914733886719 L 208.2256164550781 193.7933349609375 C 208.2206268310547 193.7963409423828 208.2157135009766 193.7992858886719 208.2107086181641 193.8022918701172 L 208.209228515625 193.8031768798828 C 208.2042236328125 193.8061828613281 208.1992492675781 193.8091735839844 208.1942443847656 193.8121948242188 L 208.1920013427734 193.8135375976563 C 208.1880187988281 193.81591796875 208.1837921142578 193.8184661865234 208.1798095703125 193.8208618164063 L 208.1739959716797 193.8243560791016 C 208.172607421875 193.8251800537109 208.1712799072266 193.8259887695313 208.1698913574219 193.8268127441406 L 208.1648712158203 193.829833984375 C 208.1646881103516 193.8299407958984 208.1645202636719 193.8300476074219 208.1643524169922 193.8301544189453 L 208.1504669189453 193.8384857177734 C 208.1490783691406 193.8393249511719 208.1477813720703 193.8401031494141 208.1463775634766 193.8409423828125 L 208.1400604248047 193.8447418212891 C 208.1388397216797 193.8454742431641 208.1377410888672 193.8461303710938 208.1365203857422 193.8468627929688 L 208.1322784423828 193.8494110107422 C 208.1319274902344 193.8496246337891 208.1313629150391 193.8499603271484 208.1310119628906 193.8501739501953 L 208.1229553222656 193.8550262451172 C 208.1227722167969 193.8551177978516 208.1224975585938 193.8553009033203 208.122314453125 193.8554077148438 L 208.0977172851563 193.8701934814453 C 208.0977172851563 193.8701934814453 208.0976409912109 193.8702239990234 208.0976409912109 193.8702239990234 L 204.1414489746094 196.2473449707031 Z M 192.14111328125 203.4578704833984 L 191.6260681152344 202.6007080078125 L 197.6262512207031 198.9954528808594 L 198.1412963867188 199.8526153564453 L 194.9202270507813 201.7880249023438 C 194.9183959960938 201.7891082763672 194.9161834716797 201.7904510498047 194.9143524169922 201.7915496826172 L 194.9113616943359 201.7933349609375 C 194.9071655273438 201.7958679199219 194.9029541015625 201.7984008789063 194.8987579345703 201.8009185791016 L 194.8929443359375 201.8044128417969 C 194.8881988525391 201.8072662353516 194.8838653564453 201.8098754882813 194.8791198730469 201.8127136230469 L 194.853759765625 201.8279571533203 C 193.4554138183594 202.6681671142578 192.14111328125 203.4578704833984 192.14111328125 203.4578704833984 Z M 180.1407775878906 210.6684112548828 L 179.625732421875 209.8112487792969 L 185.6259155273438 206.2059783935547 L 186.1409301757813 207.0631561279297 L 180.1407775878906 210.6684112548828 Z M 168.1404266357422 217.8789520263672 L 167.6253967285156 217.0217742919922 L 173.6255493164063 213.4165191650391 L 174.1405944824219 214.2736663818359 C 174.1405944824219 214.2736663818359 173.1123657226563 214.8914947509766 171.9070739746094 215.6157073974609 L 171.9056243896484 215.6165771484375 C 171.8947906494141 215.6230926513672 171.8839721679688 215.6295928955078 171.8731079101563 215.6361236572266 L 171.8698883056641 215.6380615234375 C 171.8686370849609 215.6388092041016 171.8674011230469 215.6395416259766 171.8661499023438 215.6403045654297 L 171.8596954345703 215.6441802978516 C 171.8595123291016 215.644287109375 171.859375 215.6443786621094 171.8591918945313 215.6444854736328 L 168.1404266357422 217.8789367675781 Z M 156.1400909423828 225.0894775390625 L 155.6250610351563 224.2323150634766 L 161.6252136230469 220.6270294189453 L 162.1402587890625 221.4842071533203 L 156.1400909423828 225.0894775390625 Z" stroke="none" fill="#5d64d2"/>
      </g>
    </g>
  </g>
</svg>
