<svg id="LogoQovery" xmlns="http://www.w3.org/2000/svg" width="158" height="49" viewBox="0 0 158 49">
  <path id="Qovery" d="M21.982,20.72l-2.147,2.59L17.656,21.5a10.846,10.846,0,0,1-6.6,2.072,10.574,10.574,0,0,1-7.979-3.237A11.9,11.9,0,0,1,0,11.784,11.9,11.9,0,0,1,3.076,3.237,10.574,10.574,0,0,1,11.055,0,10.471,10.471,0,0,1,19,3.237a11.824,11.824,0,0,1,3.108,8.547A12.884,12.884,0,0,1,20,19.1ZM11.055,3.594A6.157,6.157,0,0,0,5.928,5.86a9.262,9.262,0,0,0-1.794,5.925,9.262,9.262,0,0,0,1.794,5.925,6.157,6.157,0,0,0,5.127,2.266,6.8,6.8,0,0,0,3.717-.939l-2.884-2.428L14,14.018l3.012,2.59a9.989,9.989,0,0,0,1.057-4.824A9.151,9.151,0,0,0,16.246,5.86,6.284,6.284,0,0,0,11.055,3.594Z" transform="translate(56.567 12.359)" fill="#a8a8c1"/>
  <path id="Qovery-2" data-name="Qovery" d="M37.9,21.043a7.437,7.437,0,0,1-5.832,2.4,7.537,7.537,0,0,1-5.864-2.4,8.6,8.6,0,0,1-2.147-5.957A8.552,8.552,0,0,1,26.2,9.162a7.487,7.487,0,0,1,5.864-2.428A7.389,7.389,0,0,1,37.9,9.162a8.478,8.478,0,0,1,2.179,5.925A8.522,8.522,0,0,1,37.9,21.043Zm-2.692-9.777a3.77,3.77,0,0,0-3.14-1.424A3.86,3.86,0,0,0,28.9,11.266a6.008,6.008,0,0,0-1.122,3.82A6.064,6.064,0,0,0,28.9,18.939a3.86,3.86,0,0,0,3.172,1.424,3.77,3.77,0,0,0,3.14-1.424,5.946,5.946,0,0,0,1.154-3.853A5.892,5.892,0,0,0,35.209,11.266Z" transform="translate(56.567 12.359)" fill="#a8a8c1"/>
  <path id="Qovery-3" data-name="Qovery" d="M56.449,7.025,50.36,23.115H47L40.907,7.025h3.685l4.07,11.655,4.07-11.655Z" transform="translate(56.567 12.359)" fill="#a8a8c1"/>
  <path id="Qovery-4" data-name="Qovery" d="M71.71,15.669H61.04a5.228,5.228,0,0,0,1.73,3.561,5.335,5.335,0,0,0,3.4,1.133,10.559,10.559,0,0,0,4.807-1.2l.256,3.043a11.627,11.627,0,0,1-5.319,1.23,8.373,8.373,0,0,1-6.377-2.4,8.423,8.423,0,0,1-2.243-5.989,8.747,8.747,0,0,1,2.051-5.892,7.047,7.047,0,0,1,5.64-2.428,6.854,6.854,0,0,1,5,1.91,6.635,6.635,0,0,1,1.955,5.018A11.677,11.677,0,0,1,71.71,15.669ZM65.045,9.842q-3.14,0-3.845,3.335h7.018a3.593,3.593,0,0,0-.8-2.363A2.84,2.84,0,0,0,65.045,9.842Z" transform="translate(56.567 12.359)" fill="#a8a8c1"/>
  <path id="Qovery-5" data-name="Qovery" d="M83.62,6.669l-.7,3.594H81.569a3.669,3.669,0,0,0-1.859.518,3.281,3.281,0,0,0-1.25,1.23v11.1H74.744V7.025h3.3l.192,2.007a6.129,6.129,0,0,1,4.582-2.363Z" transform="translate(56.567 12.359)" fill="#a8a8c1"/>
  <path id="Qovery-6" data-name="Qovery" d="M101.433,7.025l-9.9,23.925H87.782l3.589-8.806L84.738,7.025h4.037l4.358,10.845L97.4,7.025Z" transform="translate(56.567 12.359)" fill="#a8a8c1"/>
  <g id="Logo">
    <path id="Vector" d="M0,6.711V29.036L10.815,22.73V0Z" transform="translate(30.375 12.107)" fill="#33369f"/>
    <path id="Vector-2" data-name="Vector" d="M21.129,0,0,11.668l11.582,7.149,9.513-5.4,9.279,5.4,10.815-6.711Z" fill="#b7b9e7"/>
    <path id="Vector-3" data-name="Vector" d="M0,0,11.616,7.149l-.1,11.028,12.951,7.082L24.6,37.332,0,23.235Z" transform="translate(0 11.668)" fill="#7173cd"/>
    <path id="Vector-4" data-name="Vector" d="M0,0,9.279,5.4S9.3,16.573,9.3,16.4c.674.327-9.171-4.938-9.171-4.938Z" transform="translate(21.095 13.422)" fill="#7173cd"/>
    <path id="Vector-5" data-name="Vector" d="M0,16.423l9.713-4.957L9.58,0,.1,5.4Z" transform="translate(11.516 13.422)" fill="#33369f"/>
    <path id="Vector-6" data-name="Vector" d="M12.951,12.039,0,4.957,9.713,0,22.13,6.677Z" transform="translate(11.516 24.888)" fill="#b7b9e7"/>
    <path id="Vector-7" data-name="Vector" d="M.134,17.435,9.012,11.4,9.179,0,0,5.362Z" transform="translate(24.467 31.565)" fill="#33369f"/>
    <path id="Vector-8" data-name="Vector" d="M0,10.893c3.471,2.158,7.006,4.285,10.478,6.443,3.171-1.787,6.31-3.61,9.481-5.4,3.1,1.787,6.177,3.608,9.281,5.4,3.171-2.023,6.378-3.909,9.533-5.918L19.96,0C13.318,3.642,6.676,7.251,0,10.893Z" transform="translate(1.138 1.484)" fill="#b7b9e7"/>
  </g>
</svg>
